<svg width="44" height="41" viewBox="0 0 44 41" fill="none" xmlns="http://www.w3.org/2000/svg">
<path d="M29.9712 12.8258C29.7698 12.6383 29.5302 12.4895 29.2662 12.388C29.0021 12.2864 28.7189 12.2342 28.4329 12.2342C28.1469 12.2342 27.8637 12.2864 27.5997 12.388C27.3356 12.4895 27.096 12.6383 26.8946 12.8258L21.9329 17.4258L16.9712 12.8258C16.5633 12.4492 16.0099 12.2376 15.4329 12.2376C14.8559 12.2376 14.3026 12.4492 13.8946 12.8258C13.4866 13.2024 13.2574 13.7132 13.2574 14.2458C13.2574 14.7784 13.4866 15.2892 13.8946 15.6658L18.8779 20.2458L13.8946 24.8258C13.6915 25.0117 13.5303 25.2329 13.4203 25.4766C13.3103 25.7203 13.2537 25.9817 13.2537 26.2458C13.2537 26.5098 13.3103 26.7712 13.4203 27.0149C13.5303 27.2586 13.6915 27.4798 13.8946 27.6658C14.096 27.8532 14.3356 28.002 14.5997 28.1035C14.8637 28.2051 15.1469 28.2574 15.4329 28.2574C15.7189 28.2574 16.0021 28.2051 16.2662 28.1035C16.5302 28.002 16.7698 27.8532 16.9712 27.6658L21.9329 23.0658L26.8946 27.6658C27.096 27.8532 27.3356 28.002 27.5997 28.1035C27.8637 28.2051 28.1469 28.2574 28.4329 28.2574C28.7189 28.2574 29.0021 28.2051 29.2662 28.1035C29.5302 28.002 29.7698 27.8532 29.9712 27.6658C30.1743 27.4798 30.3355 27.2586 30.4455 27.0149C30.5555 26.7712 30.6121 26.5098 30.6121 26.2458C30.6121 25.9817 30.5555 25.7203 30.4455 25.4766C30.3355 25.2329 30.1743 25.0117 29.9712 24.8258L24.9879 20.2458L29.9712 15.6658C30.1743 15.4798 30.3355 15.2586 30.4455 15.0149C30.5555 14.7712 30.6121 14.5098 30.6121 14.2458C30.6121 13.9817 30.5555 13.7203 30.4455 13.4766C30.3355 13.2329 30.1743 13.0117 29.9712 12.8258V12.8258ZM37.2512 6.10576C35.2526 4.19556 32.8618 2.67192 30.2183 1.62374C27.5749 0.575556 24.7318 0.0238315 21.8549 0.000755135C18.9781 -0.0223212 16.125 0.483713 13.4622 1.48933C10.7995 2.49495 8.38036 3.98001 6.34602 5.85786C4.31168 7.73572 2.70286 9.96876 1.61344 12.4267C0.524022 14.8846 -0.0241813 17.5182 0.000818063 20.1738C0.0258174 22.8294 0.623519 25.4538 1.75905 27.8939C2.89458 30.3339 4.54519 32.5408 6.61458 34.3858C8.61326 36.296 11.0041 37.8196 13.6475 38.8678C16.2909 39.916 19.134 40.4677 22.0109 40.4908C24.8878 40.5139 27.7408 40.0078 30.4036 39.0022C33.0663 37.9966 35.4855 36.5115 37.5198 34.6337C39.5541 32.7558 41.163 30.5228 42.2524 28.0648C43.3418 25.6069 43.89 22.9733 43.865 20.3177C43.84 17.6622 43.2423 15.0378 42.1068 12.5977C40.9713 10.1576 39.3206 7.9507 37.2512 6.10576V6.10576ZM34.1962 31.5658C31.3623 34.1846 27.6324 35.8154 23.642 36.1804C19.6515 36.5453 15.6474 35.6219 12.3119 33.5673C8.97633 31.5127 6.51569 28.4542 5.34919 24.9127C4.18268 21.3713 4.38249 17.566 5.91456 14.1453C7.44663 10.7246 10.2162 7.90006 13.7513 6.15289C17.2865 4.40572 21.3686 3.84402 25.3021 4.56351C29.2356 5.283 32.7772 7.23915 35.3234 10.0987C37.8697 12.9582 39.2631 16.5442 39.2662 20.2458C39.274 22.3483 38.8299 24.4315 37.9596 26.3745C37.0893 28.3176 35.8102 30.0821 34.1962 31.5658V31.5658Z" fill="#1B1B1B"/>
</svg>
