<svg width="38" height="42" viewBox="0 0 38 42" fill="none" xmlns="http://www.w3.org/2000/svg">
<path d="M18.75 33.75C19.1208 33.75 19.4834 33.64 19.7917 33.434C20.1 33.228 20.3404 32.9351 20.4823 32.5925C20.6242 32.2499 20.6613 31.8729 20.589 31.5092C20.5166 31.1455 20.338 30.8114 20.0758 30.5492C19.8136 30.2869 19.4795 30.1084 19.1158 30.036C18.7521 29.9637 18.3751 30.0008 18.0325 30.1427C17.6899 30.2846 17.397 30.525 17.191 30.8333C16.985 31.1416 16.875 31.5042 16.875 31.875C16.875 32.3723 17.0725 32.8492 17.4242 33.2008C17.7758 33.5525 18.2527 33.75 18.75 33.75ZM28.125 33.75C28.4958 33.75 28.8584 33.64 29.1667 33.434C29.475 33.228 29.7154 32.9351 29.8573 32.5925C29.9992 32.2499 30.0363 31.8729 29.964 31.5092C29.8916 31.1455 29.7131 30.8114 29.4508 30.5492C29.1886 30.2869 28.8545 30.1084 28.4908 30.036C28.1271 29.9637 27.7501 30.0008 27.4075 30.1427C27.0649 30.2846 26.772 30.525 26.566 30.8333C26.36 31.1416 26.25 31.5042 26.25 31.875C26.25 32.3723 26.4475 32.8492 26.7992 33.2008C27.1508 33.5525 27.6277 33.75 28.125 33.75ZM28.125 26.25C28.4958 26.25 28.8584 26.14 29.1667 25.934C29.475 25.728 29.7154 25.4351 29.8573 25.0925C29.9992 24.7499 30.0363 24.3729 29.964 24.0092C29.8916 23.6455 29.7131 23.3114 29.4508 23.0492C29.1886 22.787 28.8545 22.6084 28.4908 22.536C28.1271 22.4637 27.7501 22.5008 27.4075 22.6427C27.0649 22.7846 26.772 23.025 26.566 23.3333C26.36 23.6416 26.25 24.0042 26.25 24.375C26.25 24.8723 26.4475 25.3492 26.7992 25.7008C27.1508 26.0525 27.6277 26.25 28.125 26.25ZM18.75 26.25C19.1208 26.25 19.4834 26.14 19.7917 25.934C20.1 25.728 20.3404 25.4351 20.4823 25.0925C20.6242 24.7499 20.6613 24.3729 20.589 24.0092C20.5166 23.6455 20.338 23.3114 20.0758 23.0492C19.8136 22.787 19.4795 22.6084 19.1158 22.536C18.7521 22.4637 18.3751 22.5008 18.0325 22.6427C17.6899 22.7846 17.397 23.025 17.191 23.3333C16.985 23.6416 16.875 24.0042 16.875 24.375C16.875 24.8723 17.0725 25.3492 17.4242 25.7008C17.7758 26.0525 18.2527 26.25 18.75 26.25ZM31.875 3.75H30V1.875C30 1.37772 29.8025 0.900805 29.4508 0.549175C29.0992 0.197544 28.6223 0 28.125 0C27.6277 0 27.1508 0.197544 26.7992 0.549175C26.4475 0.900805 26.25 1.37772 26.25 1.875V3.75H11.25V1.875C11.25 1.37772 11.0525 0.900805 10.7008 0.549175C10.3492 0.197544 9.87228 0 9.375 0C8.87772 0 8.40081 0.197544 8.04918 0.549175C7.69754 0.900805 7.5 1.37772 7.5 1.875V3.75H5.625C4.13316 3.75 2.70242 4.34263 1.64752 5.39752C0.592632 6.45242 0 7.88316 0 9.375V35.625C0 37.1168 0.592632 38.5476 1.64752 39.6025C2.70242 40.6574 4.13316 41.25 5.625 41.25H31.875C33.3668 41.25 34.7976 40.6574 35.8525 39.6025C36.9074 38.5476 37.5 37.1168 37.5 35.625V9.375C37.5 7.88316 36.9074 6.45242 35.8525 5.39752C34.7976 4.34263 33.3668 3.75 31.875 3.75ZM33.75 35.625C33.75 36.1223 33.5525 36.5992 33.2008 36.9508C32.8492 37.3025 32.3723 37.5 31.875 37.5H5.625C5.12772 37.5 4.65081 37.3025 4.29918 36.9508C3.94754 36.5992 3.75 36.1223 3.75 35.625V18.75H33.75V35.625ZM33.75 15H3.75V9.375C3.75 8.87772 3.94754 8.40081 4.29918 8.04918C4.65081 7.69754 5.12772 7.5 5.625 7.5H7.5V9.375C7.5 9.87228 7.69754 10.3492 8.04918 10.7008C8.40081 11.0525 8.87772 11.25 9.375 11.25C9.87228 11.25 10.3492 11.0525 10.7008 10.7008C11.0525 10.3492 11.25 9.87228 11.25 9.375V7.5H26.25V9.375C26.25 9.87228 26.4475 10.3492 26.7992 10.7008C27.1508 11.0525 27.6277 11.25 28.125 11.25C28.6223 11.25 29.0992 11.0525 29.4508 10.7008C29.8025 10.3492 30 9.87228 30 9.375V7.5H31.875C32.3723 7.5 32.8492 7.69754 33.2008 8.04918C33.5525 8.40081 33.75 8.87772 33.75 9.375V15ZM9.375 26.25C9.74584 26.25 10.1084 26.14 10.4167 25.934C10.725 25.728 10.9654 25.4351 11.1073 25.0925C11.2492 24.7499 11.2863 24.3729 11.214 24.0092C11.1416 23.6455 10.963 23.3114 10.7008 23.0492C10.4386 22.787 10.1045 22.6084 9.74079 22.536C9.37708 22.4637 9.00008 22.5008 8.65747 22.6427C8.31486 22.7846 8.02202 23.025 7.81599 23.3333C7.60997 23.6416 7.5 24.0042 7.5 24.375C7.5 24.8723 7.69754 25.3492 8.04918 25.7008C8.40081 26.0525 8.87772 26.25 9.375 26.25ZM9.375 33.75C9.74584 33.75 10.1084 33.64 10.4167 33.434C10.725 33.228 10.9654 32.9351 11.1073 32.5925C11.2492 32.2499 11.2863 31.8729 11.214 31.5092C11.1416 31.1455 10.963 30.8114 10.7008 30.5492C10.4386 30.2869 10.1045 30.1084 9.74079 30.036C9.37708 29.9637 9.00008 30.0008 8.65747 30.1427C8.31486 30.2846 8.02202 30.525 7.81599 30.8333C7.60997 31.1416 7.5 31.5042 7.5 31.875C7.5 32.3723 7.69754 32.8492 8.04918 33.2008C8.40081 33.5525 8.87772 33.75 9.375 33.75Z" fill="#1B1B1B"/>
</svg>
