<svg width="41" height="38" viewBox="0 0 41 38" fill="none" xmlns="http://www.w3.org/2000/svg">
<path d="M25.97 12.7312L17.2113 20.7938L13.8425 17.7C13.6595 17.5037 13.4342 17.3443 13.1809 17.2318C12.9276 17.1192 12.6518 17.056 12.3706 17.046C12.0894 17.036 11.809 17.0795 11.547 17.1738C11.285 17.2681 11.0471 17.4111 10.8481 17.5938C10.6491 17.7765 10.4934 17.995 10.3908 18.2356C10.2881 18.4763 10.2408 18.7338 10.2516 18.992C10.2625 19.2502 10.3314 19.5036 10.4539 19.7362C10.5764 19.9688 10.75 20.1757 10.9638 20.3438L15.7617 24.7688C15.9524 24.9425 16.1787 25.08 16.4274 25.1733C16.6762 25.2666 16.9426 25.3139 17.2113 25.3125C17.7469 25.3104 18.2601 25.1151 18.6404 24.7688L28.8488 15.3938C29.0401 15.2194 29.192 15.0121 29.2957 14.7836C29.3993 14.5551 29.4527 14.31 29.4527 14.0625C29.4527 13.815 29.3993 13.5699 29.2957 13.3414C29.192 13.1129 29.0401 12.9056 28.8488 12.7312C28.4662 12.382 27.9488 12.186 27.4094 12.186C26.87 12.186 26.3525 12.382 25.97 12.7312ZM20.4167 0C16.3786 0 12.4313 1.09967 9.07378 3.15994C5.71628 5.22022 3.09942 8.14857 1.55414 11.5747C0.00884622 15.0008 -0.395472 18.7708 0.39231 22.4079C1.18009 26.0451 3.12459 29.386 5.97991 32.0083C8.83523 34.6305 12.4731 36.4163 16.4336 37.1397C20.394 37.8632 24.4991 37.4919 28.2298 36.0727C31.9605 34.6536 35.1491 32.2504 37.3925 29.1669C39.6359 26.0835 40.8333 22.4584 40.8333 18.75C40.8333 16.2877 40.3052 13.8495 39.2792 11.5747C38.2532 9.29983 36.7493 7.23285 34.8534 5.49175C32.9576 3.75065 30.7069 2.36953 28.2298 1.42726C25.7527 0.484983 23.0978 0 20.4167 0V0ZM20.4167 33.75C17.1862 33.75 14.0284 32.8703 11.3424 31.222C8.65636 29.5738 6.56287 27.2311 5.32664 24.4903C4.09041 21.7494 3.76696 18.7334 4.39718 15.8236C5.02741 12.9139 6.58301 10.2412 8.86726 8.1434C11.1515 6.04561 14.0618 4.617 17.2302 4.03822C20.3986 3.45944 23.6826 3.75649 26.6672 4.89181C29.6517 6.02712 32.2026 7.94971 33.9973 10.4164C35.7921 12.8832 36.75 15.7833 36.75 18.75C36.75 22.7282 35.0292 26.5436 31.9661 29.3566C28.903 32.1696 24.7485 33.75 20.4167 33.75V33.75Z" fill="white"/>
</svg>
