<svg width="20" height="23" viewBox="0 0 20 23" fill="none" xmlns="http://www.w3.org/2000/svg">
<path d="M20 5.83547C20.0008 5.68891 19.9756 5.54362 19.9258 5.40794C19.876 5.27226 19.8027 5.14885 19.71 5.04479L15.47 0.322973C15.3766 0.21976 15.2658 0.138102 15.1439 0.0826825C15.0221 0.0272628 14.8916 -0.000828745 14.76 1.86136e-05C14.6284 -0.000828745 14.4979 0.0272628 14.3761 0.0826825C14.2543 0.138102 14.1435 0.21976 14.05 0.322973L11.22 3.47456L0.290017 15.6466C0.197335 15.7507 0.12401 15.8741 0.0742455 16.0098C0.0244809 16.1454 -0.000744179 16.2907 1.67143e-05 16.4373V21.1591C1.67143e-05 21.4545 0.105374 21.7377 0.29291 21.9466C0.480446 22.1554 0.7348 22.2727 1.00002 22.2727H5.24002C5.37994 22.2812 5.51991 22.2569 5.65084 22.2012C5.78176 22.1456 5.90073 22.0599 6.00002 21.9498L16.87 9.77775L19.71 6.68184C19.8013 6.5739 19.8757 6.44968 19.93 6.31434C19.9397 6.22557 19.9397 6.13583 19.93 6.04706C19.9347 5.99522 19.9347 5.94299 19.93 5.89115L20 5.83547ZM4.83002 20.0455H2.00002V16.8939L11.93 5.83547L14.76 8.98706L4.83002 20.0455ZM16.17 7.41684L13.34 4.26525L14.76 2.69502L17.58 5.83547L16.17 7.41684Z" fill="white"/>
</svg>
