<svg width="51" height="40" viewBox="0 0 51 40" fill="none" xmlns="http://www.w3.org/2000/svg">
<path d="M2.54167 5.70876H48.2917C48.9658 5.70876 49.6122 5.40803 50.0889 4.87273C50.5656 4.33743 50.8333 3.61141 50.8333 2.85438C50.8333 2.09735 50.5656 1.37133 50.0889 0.83603C49.6122 0.300729 48.9658 0 48.2917 0H2.54167C1.86757 0 1.22109 0.300729 0.744437 0.83603C0.267782 1.37133 0 2.09735 0 2.85438C0 3.61141 0.267782 4.33743 0.744437 4.87273C1.22109 5.40803 1.86757 5.70876 2.54167 5.70876V5.70876ZM48.2917 34.2526H2.54167C1.86757 34.2526 1.22109 34.5533 0.744437 35.0886C0.267782 35.6239 0 36.3499 0 37.107C0 37.864 0.267782 38.59 0.744437 39.1253C1.22109 39.6606 1.86757 39.9613 2.54167 39.9613H48.2917C48.9658 39.9613 49.6122 39.6606 50.0889 39.1253C50.5656 38.59 50.8333 37.864 50.8333 37.107C50.8333 36.3499 50.5656 35.6239 50.0889 35.0886C49.6122 34.5533 48.9658 34.2526 48.2917 34.2526ZM48.2917 22.8351H2.54167C1.86757 22.8351 1.22109 23.1358 0.744437 23.6711C0.267782 24.2064 0 24.9324 0 25.6894C0 26.4465 0.267782 27.1725 0.744437 27.7078C1.22109 28.2431 1.86757 28.5438 2.54167 28.5438H48.2917C48.9658 28.5438 49.6122 28.2431 50.0889 27.7078C50.5656 27.1725 50.8333 26.4465 50.8333 25.6894C50.8333 24.9324 50.5656 24.2064 50.0889 23.6711C49.6122 23.1358 48.9658 22.8351 48.2917 22.8351ZM48.2917 11.4175H2.54167C1.86757 11.4175 1.22109 11.7183 0.744437 12.2536C0.267782 12.7889 0 13.5149 0 14.2719C0 15.0289 0.267782 15.755 0.744437 16.2903C1.22109 16.8256 1.86757 17.1263 2.54167 17.1263H48.2917C48.9658 17.1263 49.6122 16.8256 50.0889 16.2903C50.5656 15.755 50.8333 15.0289 50.8333 14.2719C50.8333 13.5149 50.5656 12.7889 50.0889 12.2536C49.6122 11.7183 48.9658 11.4175 48.2917 11.4175Z" fill="#1B1B1B"/>
</svg>
