<svg width="44" height="55" viewBox="0 0 44 55" fill="none" xmlns="http://www.w3.org/2000/svg">
<path d="M38.2812 30.7005V21.9681C38.2773 18.0774 36.9025 14.3135 34.4001 11.3432C31.8978 8.37283 28.4295 6.38764 24.6094 5.73918V2.74602C24.6094 2.01773 24.3213 1.31927 23.8085 0.80429C23.2957 0.289312 22.6002 0 21.875 0C21.1498 0 20.4543 0.289312 19.9415 0.80429C19.4287 1.31927 19.1406 2.01773 19.1406 2.74602V5.73918C15.3205 6.38764 11.8522 8.37283 9.34988 11.3432C6.84755 14.3135 5.47268 18.0774 5.46875 21.9681V30.7005C3.87311 31.267 2.49101 32.3153 1.51194 33.7017C0.532871 35.0881 0.00475648 36.7446 0 38.4442V43.9363C0 44.6646 0.288086 45.363 0.80088 45.878C1.31368 46.393 2.00917 46.6823 2.73438 46.6823H11.3203C11.95 49.0092 13.3246 51.0633 15.2321 52.5278C17.1396 53.9923 19.4739 54.7858 21.875 54.7858C24.2761 54.7858 26.6104 53.9923 28.5179 52.5278C30.4254 51.0633 31.8 49.0092 32.4297 46.6823H41.0156C41.7408 46.6823 42.4363 46.393 42.9491 45.878C43.4619 45.363 43.75 44.6646 43.75 43.9363V38.4442C43.7452 36.7446 43.2171 35.0881 42.2381 33.7017C41.259 32.3153 39.8769 31.267 38.2812 30.7005ZM10.9375 21.9681C10.9375 19.055 12.0898 16.2611 14.141 14.2012C16.1922 12.1413 18.9742 10.9841 21.875 10.9841C24.7758 10.9841 27.5578 12.1413 29.609 14.2012C31.6602 16.2611 32.8125 19.055 32.8125 21.9681V30.2062H10.9375V21.9681ZM21.875 49.4283C20.9206 49.4225 19.9844 49.166 19.1593 48.6843C18.3342 48.2025 17.6491 47.5124 17.1719 46.6823H26.5781C26.1009 47.5124 25.4158 48.2025 24.5907 48.6843C23.7656 49.166 22.8294 49.4225 21.875 49.4283ZM38.2812 41.1903H5.46875V38.4442C5.46875 37.716 5.75684 37.0175 6.26963 36.5025C6.78243 35.9875 7.47792 35.6982 8.20312 35.6982H35.5469C36.2721 35.6982 36.9676 35.9875 37.4804 36.5025C37.9932 37.0175 38.2812 37.716 38.2812 38.4442V41.1903Z" fill="#1B1B1B"/>
</svg>
