<svg width="65" height="71" viewBox="0 0 65 71" fill="none" xmlns="http://www.w3.org/2000/svg">
<path d="M32.5 0C26.1846 0.0130301 20.0089 2.02013 14.7252 5.77682C9.44157 9.53352 5.27796 14.8777 2.74154 21.1583C0.205115 27.439 -0.594638 34.3851 0.43969 41.1506C1.47402 47.916 4.29778 54.2089 8.56704 59.2626C11.6162 62.8517 15.3169 65.7162 19.436 67.6753C23.555 69.6345 28.0031 70.646 32.5 70.646C36.9968 70.646 41.445 69.6345 45.564 67.6753C49.6831 65.7162 53.3838 62.8517 56.433 59.2626C60.7022 54.2089 63.526 47.916 64.5603 41.1506C65.5946 34.3851 64.7949 27.439 62.2585 21.1583C59.722 14.8777 55.5584 9.53352 50.2748 5.77682C44.9911 2.02013 38.8154 0.0130301 32.5 0ZM32.5 63.6472C25.7547 63.636 19.2764 60.784 14.4282 55.6913C15.9001 51.8001 18.4041 48.4719 21.6219 46.1296C24.8397 43.7874 28.6261 42.5368 32.5 42.5368C36.3739 42.5368 40.1603 43.7874 43.3781 46.1296C46.5959 48.4719 49.0999 51.8001 50.5718 55.6913C45.7236 60.784 39.2453 63.636 32.5 63.6472ZM25.9876 28.2876C25.9876 26.8889 26.3696 25.5217 27.0852 24.3587C27.8007 23.1957 28.8178 22.2893 30.0078 21.754C31.1978 21.2188 32.5072 21.0787 33.7705 21.3516C35.0338 21.6245 36.1942 22.298 37.1049 23.287C38.0157 24.2761 38.636 25.5361 38.8872 26.908C39.1385 28.2798 39.0095 29.7017 38.5166 30.9939C38.0237 32.2861 37.189 33.3906 36.1181 34.1677C35.0471 34.9448 33.788 35.3595 32.5 35.3595C30.7728 35.3595 29.1164 34.6145 27.8951 33.2882C26.6738 31.962 25.9876 30.1632 25.9876 28.2876ZM55.0002 49.5033C52.0909 44.0996 47.6133 39.8963 42.2686 37.5518C43.9265 35.5104 45.0068 32.9928 45.3797 30.3011C45.7527 27.6095 45.4025 24.8581 44.3712 22.3773C43.3399 19.8964 41.6713 17.7914 39.5656 16.3148C37.4599 14.8382 35.0066 14.0528 32.5 14.0528C29.9934 14.0528 27.5401 14.8382 25.4344 16.3148C23.3287 17.7914 21.6601 19.8964 20.6288 22.3773C19.5975 24.8581 19.2473 27.6095 19.6203 30.3011C19.9932 32.9928 21.0735 35.5104 22.7314 37.5518C17.3867 39.8963 12.9091 44.0996 9.99976 49.5033C7.68118 45.2146 6.45612 40.3327 6.45052 35.3595C6.45052 27.8572 9.19501 20.6621 14.0802 15.3572C18.9655 10.0522 25.5912 7.07191 32.5 7.07191C39.4088 7.07191 46.0345 10.0522 50.9198 15.3572C55.805 20.6621 58.5495 27.8572 58.5495 35.3595C58.5439 40.3327 57.3188 45.2146 55.0002 49.5033Z" fill="#1B1B1B"/>
</svg>
